# xmcd CD database file
# Copyright (C) 1997 Ti Kan
# 
# Track frame offsets:
#     150
#     25180
#     49467
#     70732
#     83315
#     99990
#     112685
#     135755
#     152437
#     168470
#     179980
# 
# Disc length: 2820 seconds
# 
# Revision: 1
# Processed by: cddbd v1.4b41PL1 Copyright (c) Steve Scherf et al.
# Submitted via: DiscPlay 4.0.3
# 
DISCID=7c0b020b
DTITLE=Johnny Winter - Second Winter
DYEAR=1900
DGENRE=
TTITLE0=Memory Pain
TTITLE1=I'm Not Sure
TTITLE2=The Good Love
TTITLE3=Slippin' And Slidin'
TTITLE4=Miss Ann
TTITLE5=Johnny B. Goode
TTITLE6=Highway 61 Revisited
TTITLE7=I Love Everybody
TTITLE8=Hustled Down In Texas
TTITLE9=I Hate Everybody
TTITLE10=Fast Life Rider
EXTD=
EXTT0=
EXTT1=
EXTT2=
EXTT3=
EXTT4=
EXTT5=
EXTT6=
EXTT7=
EXTT8=
EXTT9=
EXTT10=
PLAYORDER=
